<svg width="246" height="184" viewBox="0 0 246 184" fill="none" xmlns="http://www.w3.org/2000/svg">
<g filter="url(#filter0_d_3024_532)">
<path fill-rule="evenodd" clip-rule="evenodd" d="M142.802 39.0173L140.606 46.1528L140.655 79.0859H148.841V83.4769H153.232L157.624 79.0859H165.31L179.583 64.8149V39.0173H142.802ZM175.74 62.6193L169.702 68.6571H159.82L154.33 74.1459V68.6571H146.096V42.8595H175.74V62.6193ZM165.859 49.995H169.702V60.9727H165.859V49.995ZM155.977 49.995H159.82V60.9727H155.977V49.995ZM202.64 101.041V126.839L188.367 136.719H179.583V132.328L172.995 136.719H165.31V132.328L160.369 136.719H146.096L141.704 132.328L140.606 136.719L128.007 136.686L123.039 132.328L122.49 136.719L108.211 136.686L107.668 132.328L103.825 136.686L81.8661 136.719L77.4744 134.523V136.719H65.397L52.2217 128.485L43.9871 120.252V84.0258H61.0052L69.2398 92.2591H106.57V84.0258H137.312V92.2591H144.998V96.6502L149.39 92.2591H158.722L166.957 84.0258H184.524V92.2591H193.856L202.64 101.041ZM65.397 96.1013H57.7114V87.868H47.8299V118.606L53.8686 125.192H65.397V114.763H57.7114V105.981H65.397V96.1013ZM106.57 96.1013H96.6884V114.763H92.8456V96.1013H83.513V114.763H79.6702V96.1013H69.2398V125.192H99.9822L106.57 118.606V96.1013ZM119.745 96.1013H110.413V125.192H119.745V96.1013ZM119.745 87.868H110.413V92.2591H119.745V87.868ZM141.155 96.1013H133.469V87.868H123.588V118.606L129.627 125.192H141.155V114.763H133.469V105.981H141.155V96.1013ZM166.408 96.1013H151.037L144.998 102.139V118.606L151.586 125.192H166.408V114.763H155.428V105.981H166.408V96.1013ZM198.797 102.139L192.209 96.1013H180.681V87.868H170.251V125.192H180.681V105.981H188.367V125.192H198.797V102.139Z" fill="#874BF7"/>
</g>
<defs>
<filter id="filter0_d_3024_532" x="0.987091" y="0.0173035" width="244.653" height="183.701" filterUnits="userSpaceOnUse" color-interpolation-filters="sRGB">
<feFlood flood-opacity="0" result="BackgroundImageFix"/>
<feColorMatrix in="SourceAlpha" type="matrix" values="0 0 0 0 0 0 0 0 0 0 0 0 0 0 0 0 0 0 127 0" result="hardAlpha"/>
<feOffset dy="4"/>
<feGaussianBlur stdDeviation="21.5"/>
<feComposite in2="hardAlpha" operator="out"/>
<feColorMatrix type="matrix" values="0 0 0 0 0.529412 0 0 0 0 0.294118 0 0 0 0 0.968627 0 0 0 0.4 0"/>
<feBlend mode="normal" in2="BackgroundImageFix" result="effect1_dropShadow_3024_532"/>
<feBlend mode="normal" in="SourceGraphic" in2="effect1_dropShadow_3024_532" result="shape"/>
</filter>
</defs>
</svg>
